<?xml version="1.0" standalone="no"?><!DOCTYPE svg PUBLIC "-//W3C//DTD SVG 1.1//EN" "http://www.w3.org/Graphics/SVG/1.1/DTD/svg11.dtd"><svg t="1584704410662" class="icon" viewBox="0 0 1024 1024" version="1.1" xmlns="http://www.w3.org/2000/svg" p-id="1119" xmlns:xlink="http://www.w3.org/1999/xlink" width="200" height="200"><defs><style type="text/css"></style></defs><path d="M530.861068 21.026896c91.064019 33.05279 119.761618 115.092271 151.646815 193.614649 32.284287-3.255137 63.869656-9.012258 95.429443-8.873088 29.623691 0.12996 60.432371 2.457981 88.594781 10.901281 73.954339 22.172999 91.827405 72.116481 77.56354 139.352815-11.241019 52.988842-42.590004 96.325859-76.198449 137.707338-4.787026 5.895267-9.707083 11.680017-14.236236 17.121959 18.730597 25.895787 38.379099 50.187029 54.824653 76.483952 22.76447 36.396955 40.165792 74.617441 39.581484 119.779014-0.563842 43.494607-20.552082 72.541153-57.443293 91.609441-35.633568 18.421558-74.475202 21.982664-113.653503 20.022009-31.100322-1.556449-62.071707-5.710049-94.78783-8.870018-5.462408 13.936407-11.096732 29.363771-17.509792 44.459584-17.319457 40.754193-38.140669 79.400375-70.335928 110.678752-52.16201 50.683333-112.267946 50.626028-164.248831-0.268106-37.82856-37.034475-59.981093-83.569324-78.809927-132.016733-2.981914-7.67889-5.734608-15.443737-8.520047-22.970154-31.696909 3.111874-62.599733 8.354272-93.535303 8.540514-28.424376 0.176009-57.722656-1.736551-85.155449-8.620331-72.016197-18.071587-102.170984-72.503291-83.068927-144.41818 12.880355-48.493457 39.73805-89.405239 70.476121-128.123053 6.330172-7.974625 12.95301-15.719007 20.319791-24.63098-9.875928-12.412704-20.002566-24.514323-29.444613-37.126572-30.034037-40.111556-56.035224-82.232886-64.747653-132.795469-9.780761-56.755632 14.427594-101.208053 67.886133-122.244158 52.264341-20.564361 106.320491-17.384949 160.463622-10.029424 11.343349 1.541099 22.580275 3.89061 35.471886 6.15007 2.091638-5.030573 3.952009-10.231015 6.356778-15.166421 16.996093-34.871205 32.027437-70.91512 51.731198-104.188944 21.964244-37.093826 53.981449-64.22372 96.872305-76.080769C507.877611 21.026896 519.368316 21.026896 530.861068 21.026896zM707.095885 512.363274c-1.735527-30.800493-2.724041-62.708204-5.877871-94.399997-0.808412-8.109702-6.562463-18.708084-13.295817-22.771633-53.414537-32.207539-107.392916-63.509453-161.857365-93.909833-6.879688-3.838422-19.466354-4.208858-26.221198-0.453325-55.05899 30.625508-109.563348 62.272275-163.613358 94.650707-6.248308 3.741207-12.209066 13.812587-12.31856 21.040199-0.958838 63.666018-0.956791 127.358643-0.024559 191.023638 0.106424 7.249101 5.880941 17.394159 12.07706 21.103644 54.597479 32.701796 109.717867 64.550155 165.220972 95.693456 5.848195 3.279696 16.742313 3.189645 22.621207-0.104377 54.970986-30.803563 109.63191-62.189388 163.582659-94.739734 7.141654-4.309142 13.052271-15.697517 13.9712-24.38948C704.569342 574.706157 705.337845 544.050973 707.095885 512.363274zM332.453253 238.442624c-54.858422-8.706289-110.403482-13.340843-163.80574 11.249205-41.878806 19.282159-61.567217 57.527205-54.115502 103.636359 8.847505 54.743812 38.630832 98.761328 71.571059 139.510404 38.690184-32.506345 76.372412-63.84612 113.51945-95.807043 4.232394-3.64297 6.814196-10.530844 7.872295-16.32992C315.947324 334.36837 323.847248 287.933805 332.453253 238.442624zM658.75183 218.872916c-19.088754-49.28652-41.660842-96.760764-84.250846-131.22367-36.915771-29.877471-77.416184-32.438806-114.834398-6.727215-49.631374 34.108842-73.465199 85.828784-93.608981 137.991818 47.807842 17.60189 93.66424 34.631752 139.694599 51.17452 4.223185 1.515516 10.003841 1.1328 14.322194-0.418532C565.494866 253.306146 610.763886 236.523925 658.75183 218.872916zM692.028725 238.439554c8.94165 50.254567 17.164938 97.245811 25.849738 144.156214 0.956791 5.155417 3.358491 11.238972 7.147794 14.485923 37.126572 31.81152 74.690096 63.10934 113.373117 95.597265 33.010835-40.171931 62.609966-83.622536 71.206762-137.561006 7.591909-47.635927-10.172687-84.156702-50.199309-103.781668C805.242206 224.775346 748.467131 229.621724 692.028725 238.439554zM365.688191 805.458635c19.696598 49.206702 41.943274 97.579409 85.575004 132.062781 35.183314 27.807323 74.563206 31.137161 110.10263 8.209986 51.968605-33.523511 75.894528-86.582961 97.620341-140.213415-48.842405-17.997909-95.226828-35.224246-141.777027-51.987025-3.672646-1.323135-8.824993-0.333598-12.744255 1.085728C459.086371 771.050987 413.813259 787.773857 365.688191 805.458635zM186.11842 531.449981c-32.522718 40.258912-61.508889 83.413781-71.107501 136.678916-8.219195 45.614897 9.525957 84.242659 49.450249 104.347556 54.660924 27.522844 112.031563 21.164019 168.072927 13.701047-8.708336-50.120514-16.765849-97.79328-25.563212-145.329946-1.028423-5.562692-5.122671-11.56029-9.528004-15.33322C261.16565 594.391499 224.479099 563.751664 186.11842 531.449981zM837.457932 529.868973c-21.809725 19.932981-40.379663 41.800012-63.399959 56.865125-41.72838 27.309996-64.459081 61.974493-66.222237 112.989377-0.984421 28.488845-11.105942 56.665581-17.372669 86.219687 53.514821 7.488555 104.779392 11.977799 154.88251-6.567579 45.851281-16.97051 68.258617-49.858548 65.058738-98.621135C906.499377 621.177562 873.005542 575.334467 837.457932 529.868973zM199.618898 512.278339c35.408441 32.55444 67.39597 61.96426 101.354386 93.187379 0-63.946404 0-123.161041 0-187.05628C266.117428 450.687586 234.488057 479.983819 199.618898 512.278339zM668.5725 240.438071c-45.258787 14.294564-86.949304 27.459399-131.103944 41.405015 55.099922 31.871895 106.089224 61.369719 161.319106 93.318362C688.457386 329.101413 678.907892 286.526759 668.5725 240.438071zM356.07423 240.48105c-10.390651 46.375214-20.017916 89.327468-30.209022 134.815475 55.234999-32.04688 106.686834-61.896722 161.341618-93.606934C443.027627 267.807419 401.388275 254.721379 356.07423 240.48105zM698.913529 649.046283C643.66625 681.054277 592.344375 710.792579 537.357016 742.65424c44.100404 13.814634 86.019119 26.945699 131.345444 41.142026C679.097204 737.428216 688.493202 695.516664 698.913529 649.046283zM723.671399 418.476977c0 64.960501 0 123.604132 0 187.384761 35.060517-32.500205 66.939575-62.046125 101.213169-93.815689C790.390963 480.160851 758.796384 450.949552 723.671399 418.476977zM355.970876 783.856641c45.372374-14.272052 87.294159-27.459399 131.201158-41.271986-55.127552-31.959899-106.516965-61.750389-161.329339-93.52507C335.961146 694.323489 345.471754 736.880747 355.970876 783.856641z" p-id="1120" fill="#3EB4FF"></path><path d="M510.790964 591.716576c-43.560098-0.901533-78.143755-36.857443-77.531817-80.606853 0.613984-43.841507 36.256762-78.941933 79.673597-78.45177 44.277436 0.50142 79.884398 37.418214 78.651314 81.545224C590.36837 557.75202 554.029744 592.610946 510.790964 591.716576z" p-id="1121" fill="#3EB4FF"></path></svg>